<mxfile host="65bd71144e">
    <diagram name="Page-1" id="c7558073-3199-34d8-9f00-42111426c3f3">
        <mxGraphModel dx="1362" dy="857" grid="0" gridSize="10" guides="1" tooltips="1" connect="1" arrows="1" fold="1" page="0" pageScale="1" pageWidth="826" pageHeight="1169" background="#ffffff" math="0" shadow="0">
            <root>
                <mxCell id="0"/>
                <mxCell id="1" parent="0"/>
                <mxCell id="Gj97hD-j8zqPcNH29J3H-106" style="edgeStyle=orthogonalEdgeStyle;rounded=1;orthogonalLoop=1;jettySize=auto;html=1;entryX=0;entryY=0.5;entryDx=0;entryDy=0;fontFamily=Garamond;fontSize=16;fontColor=#000000;startSize=8;endSize=8;curved=0;strokeColor=#000000;" parent="1" source="Gj97hD-j8zqPcNH29J3H-98" target="Gj97hD-j8zqPcNH29J3H-102" edge="1">
                    <mxGeometry relative="1" as="geometry"/>
                </mxCell>
                <mxCell id="Gj97hD-j8zqPcNH29J3H-123" value="input" style="edgeLabel;html=1;align=center;verticalAlign=middle;resizable=0;points=[];fontSize=16;fontFamily=Garamond;fontColor=#000000;labelBackgroundColor=none;" parent="Gj97hD-j8zqPcNH29J3H-106" vertex="1" connectable="0">
                    <mxGeometry x="-0.2139" y="3" relative="1" as="geometry">
                        <mxPoint x="6" y="-7" as="offset"/>
                    </mxGeometry>
                </mxCell>
                <mxCell id="Gj97hD-j8zqPcNH29J3H-98" value="User" style="rounded=0;whiteSpace=wrap;html=1;fontSize=16;fontFamily=Garamond;fillColor=#e1d5e7;strokeColor=#9673a6;strokeWidth=3;fontColor=#000000;" parent="1" vertex="1">
                    <mxGeometry x="-134" y="480" width="90" height="40" as="geometry"/>
                </mxCell>
                <mxCell id="Gj97hD-j8zqPcNH29J3H-109" style="edgeStyle=orthogonalEdgeStyle;shape=connector;curved=0;rounded=1;orthogonalLoop=1;jettySize=auto;html=1;entryX=0.5;entryY=1;entryDx=0;entryDy=0;labelBackgroundColor=default;align=center;verticalAlign=middle;fontFamily=Garamond;fontSize=16;fontColor=#000000;endArrow=classic;startSize=8;endSize=8;strokeColor=#000000;" parent="1" source="Gj97hD-j8zqPcNH29J3H-100" target="Gj97hD-j8zqPcNH29J3H-104" edge="1">
                    <mxGeometry relative="1" as="geometry"/>
                </mxCell>
                <mxCell id="Gj97hD-j8zqPcNH29J3H-135" value="&lt;div&gt;generated&amp;nbsp;&lt;/div&gt;&lt;div&gt;chunks&lt;/div&gt;" style="edgeLabel;html=1;align=center;verticalAlign=middle;resizable=0;points=[];fontSize=16;fontFamily=Garamond;fontColor=#000000;labelBackgroundColor=#FFFFFF;" parent="Gj97hD-j8zqPcNH29J3H-109" vertex="1" connectable="0">
                    <mxGeometry x="-0.2142" y="-3" relative="1" as="geometry">
                        <mxPoint x="3" y="-8" as="offset"/>
                    </mxGeometry>
                </mxCell>
                <mxCell id="Gj97hD-j8zqPcNH29J3H-111" style="edgeStyle=orthogonalEdgeStyle;shape=connector;curved=0;rounded=1;orthogonalLoop=1;jettySize=auto;html=1;entryX=0.5;entryY=0;entryDx=0;entryDy=0;labelBackgroundColor=default;align=center;verticalAlign=middle;fontFamily=Garamond;fontSize=16;fontColor=#000000;endArrow=classic;startSize=8;endSize=8;strokeColor=#000000;" parent="1" source="Gj97hD-j8zqPcNH29J3H-100" target="Gj97hD-j8zqPcNH29J3H-110" edge="1">
                    <mxGeometry relative="1" as="geometry"/>
                </mxCell>
                <mxCell id="Gj97hD-j8zqPcNH29J3H-134" value="&lt;div&gt;generated&amp;nbsp;&lt;/div&gt;&lt;div&gt;entities&lt;/div&gt;" style="edgeLabel;html=1;align=center;verticalAlign=middle;resizable=0;points=[];fontSize=16;fontFamily=Garamond;fontColor=#000000;labelBackgroundColor=#FFFFFF;" parent="Gj97hD-j8zqPcNH29J3H-111" vertex="1" connectable="0">
                    <mxGeometry x="-0.3221" relative="1" as="geometry">
                        <mxPoint x="2" y="-14" as="offset"/>
                    </mxGeometry>
                </mxCell>
                <mxCell id="Gj97hD-j8zqPcNH29J3H-100" value="World generation" style="ellipse;whiteSpace=wrap;html=1;aspect=fixed;fontSize=16;fillColor=#fff2cc;strokeColor=#d6b656;strokeWidth=3;fontFamily=Garamond;fontColor=#000000;" parent="1" vertex="1">
                    <mxGeometry x="249" y="450" width="100" height="100" as="geometry"/>
                </mxCell>
                <mxCell id="Gj97hD-j8zqPcNH29J3H-108" style="edgeStyle=orthogonalEdgeStyle;shape=connector;curved=0;rounded=1;orthogonalLoop=1;jettySize=auto;html=1;entryX=0;entryY=0.5;entryDx=0;entryDy=0;labelBackgroundColor=default;align=center;verticalAlign=middle;fontFamily=Garamond;fontSize=16;fontColor=#000000;endArrow=classic;startSize=8;endSize=8;strokeColor=#000000;" parent="1" source="Gj97hD-j8zqPcNH29J3H-102" target="Gj97hD-j8zqPcNH29J3H-100" edge="1">
                    <mxGeometry relative="1" as="geometry"/>
                </mxCell>
                <mxCell id="Gj97hD-j8zqPcNH29J3H-126" value="&lt;div&gt;player&amp;nbsp;&lt;/div&gt;&lt;div&gt;position&lt;/div&gt;" style="edgeLabel;html=1;align=center;verticalAlign=middle;resizable=0;points=[];fontSize=16;fontFamily=Garamond;fontColor=#000000;labelBackgroundColor=#FFFFFF;" parent="Gj97hD-j8zqPcNH29J3H-108" vertex="1" connectable="0">
                    <mxGeometry x="-0.1987" relative="1" as="geometry">
                        <mxPoint x="9" y="-1" as="offset"/>
                    </mxGeometry>
                </mxCell>
                <mxCell id="Gj97hD-j8zqPcNH29J3H-116" style="edgeStyle=orthogonalEdgeStyle;shape=connector;curved=0;rounded=1;orthogonalLoop=1;jettySize=auto;html=1;entryX=0.5;entryY=0;entryDx=0;entryDy=0;labelBackgroundColor=default;align=center;verticalAlign=middle;fontFamily=Garamond;fontSize=16;fontColor=#000000;endArrow=classic;startSize=8;endSize=8;exitX=0.5;exitY=0;exitDx=0;exitDy=0;strokeColor=#000000;" parent="1" source="Gj97hD-j8zqPcNH29J3H-102" target="Gj97hD-j8zqPcNH29J3H-110" edge="1">
                    <mxGeometry relative="1" as="geometry">
                        <Array as="points">
                            <mxPoint x="87" y="350"/>
                            <mxPoint x="490" y="350"/>
                        </Array>
                    </mxGeometry>
                </mxCell>
                <mxCell id="Gj97hD-j8zqPcNH29J3H-124" value="player interactions" style="edgeLabel;html=1;align=center;verticalAlign=middle;resizable=0;points=[];fontSize=16;fontFamily=Garamond;fontColor=#000000;labelBackgroundColor=none;" parent="Gj97hD-j8zqPcNH29J3H-116" vertex="1" connectable="0">
                    <mxGeometry x="-0.3565" y="1" relative="1" as="geometry">
                        <mxPoint x="117" y="-11" as="offset"/>
                    </mxGeometry>
                </mxCell>
                <mxCell id="Gj97hD-j8zqPcNH29J3H-131" style="edgeStyle=orthogonalEdgeStyle;shape=connector;curved=0;rounded=1;orthogonalLoop=1;jettySize=auto;html=1;labelBackgroundColor=default;align=center;verticalAlign=middle;fontFamily=Garamond;fontSize=16;fontColor=#000000;endArrow=classic;startSize=8;endSize=8;exitX=0.5;exitY=1;exitDx=0;exitDy=0;entryX=0;entryY=0.5;entryDx=0;entryDy=0;strokeColor=#000000;" parent="1" source="Gj97hD-j8zqPcNH29J3H-102" target="Gj97hD-j8zqPcNH29J3H-118" edge="1">
                    <mxGeometry relative="1" as="geometry"/>
                </mxCell>
                <mxCell id="Gj97hD-j8zqPcNH29J3H-138" value="player stats" style="edgeLabel;html=1;align=center;verticalAlign=middle;resizable=0;points=[];fontSize=16;fontFamily=Garamond;fontColor=#000000;labelBackgroundColor=none;" parent="Gj97hD-j8zqPcNH29J3H-131" vertex="1" connectable="0">
                    <mxGeometry x="0.2902" y="-3" relative="1" as="geometry">
                        <mxPoint x="7" y="-16" as="offset"/>
                    </mxGeometry>
                </mxCell>
                <mxCell id="Gj97hD-j8zqPcNH29J3H-102" value="&lt;div&gt;State&lt;/div&gt;&lt;div&gt;management&lt;/div&gt;" style="ellipse;whiteSpace=wrap;html=1;aspect=fixed;fontSize=16;fillColor=#fff2cc;strokeColor=#d6b656;strokeWidth=3;fontFamily=Garamond;fontColor=#000000;" parent="1" vertex="1">
                    <mxGeometry x="34.85" y="448" width="104" height="104" as="geometry"/>
                </mxCell>
                <mxCell id="Gj97hD-j8zqPcNH29J3H-132" style="edgeStyle=orthogonalEdgeStyle;shape=connector;curved=0;rounded=1;orthogonalLoop=1;jettySize=auto;html=1;labelBackgroundColor=default;align=center;verticalAlign=middle;fontFamily=Garamond;fontSize=16;fontColor=#000000;endArrow=classic;startSize=8;endSize=8;strokeColor=#000000;" parent="1" source="Gj97hD-j8zqPcNH29J3H-103" target="Gj97hD-j8zqPcNH29J3H-118" edge="1">
                    <mxGeometry relative="1" as="geometry">
                        <Array as="points">
                            <mxPoint x="661" y="500"/>
                            <mxPoint x="661" y="676"/>
                        </Array>
                    </mxGeometry>
                </mxCell>
                <mxCell id="Gj97hD-j8zqPcNH29J3H-137" value="textures" style="edgeLabel;html=1;align=center;verticalAlign=middle;resizable=0;points=[];fontSize=16;fontFamily=Garamond;fontColor=#000000;labelBackgroundColor=none;" parent="Gj97hD-j8zqPcNH29J3H-132" vertex="1" connectable="0">
                    <mxGeometry x="0.3198" relative="1" as="geometry">
                        <mxPoint x="2" y="-12" as="offset"/>
                    </mxGeometry>
                </mxCell>
                <mxCell id="Gj97hD-j8zqPcNH29J3H-103" value="World simulation" style="ellipse;whiteSpace=wrap;html=1;aspect=fixed;fontSize=16;fillColor=#fff2cc;strokeColor=#d6b656;strokeWidth=3;fontFamily=Garamond;fontColor=#000000;" parent="1" vertex="1">
                    <mxGeometry x="547" y="450" width="100" height="100" as="geometry"/>
                </mxCell>
                <mxCell id="Gj97hD-j8zqPcNH29J3H-107" style="edgeStyle=orthogonalEdgeStyle;shape=connector;curved=0;rounded=1;orthogonalLoop=1;jettySize=auto;html=1;entryX=0.5;entryY=1;entryDx=0;entryDy=0;labelBackgroundColor=default;align=center;verticalAlign=middle;fontFamily=Garamond;fontSize=16;fontColor=#000000;endArrow=classic;startSize=8;endSize=8;exitX=1;exitY=0.5;exitDx=0;exitDy=0;strokeColor=#000000;" parent="1" source="Gj97hD-j8zqPcNH29J3H-104" target="Gj97hD-j8zqPcNH29J3H-103" edge="1">
                    <mxGeometry relative="1" as="geometry"/>
                </mxCell>
                <mxCell id="Gj97hD-j8zqPcNH29J3H-104" value="ChunkManager" style="shape=partialRectangle;whiteSpace=wrap;html=1;left=0;right=0;fillColor=none;rounded=0;strokeColor=#9673a6;strokeWidth=3;align=center;verticalAlign=middle;fontFamily=Garamond;fontSize=16;fontColor=#000000;" parent="1" vertex="1">
                    <mxGeometry x="440" y="560" width="100" height="36" as="geometry"/>
                </mxCell>
                <mxCell id="Gj97hD-j8zqPcNH29J3H-112" style="edgeStyle=orthogonalEdgeStyle;shape=connector;curved=0;rounded=1;orthogonalLoop=1;jettySize=auto;html=1;labelBackgroundColor=default;align=center;verticalAlign=middle;fontFamily=Garamond;fontSize=16;fontColor=#000000;endArrow=classic;startSize=8;endSize=8;exitX=1;exitY=0.5;exitDx=0;exitDy=0;entryX=0.5;entryY=0;entryDx=0;entryDy=0;strokeColor=#000000;" parent="1" source="Gj97hD-j8zqPcNH29J3H-110" target="Gj97hD-j8zqPcNH29J3H-103" edge="1">
                    <mxGeometry relative="1" as="geometry"/>
                </mxCell>
                <mxCell id="Gj97hD-j8zqPcNH29J3H-110" value="Entities" style="shape=partialRectangle;whiteSpace=wrap;html=1;left=0;right=0;fillColor=none;rounded=0;strokeColor=#9673a6;strokeWidth=3;align=center;verticalAlign=middle;fontFamily=Garamond;fontSize=16;fontColor=#000000;" parent="1" vertex="1">
                    <mxGeometry x="440" y="410" width="100" height="36" as="geometry"/>
                </mxCell>
                <mxCell id="Gj97hD-j8zqPcNH29J3H-139" style="edgeStyle=orthogonalEdgeStyle;shape=connector;curved=0;rounded=1;orthogonalLoop=1;jettySize=auto;html=1;labelBackgroundColor=default;align=center;verticalAlign=middle;fontFamily=Garamond;fontSize=16;fontColor=#000000;endArrow=classic;startSize=8;endSize=8;strokeColor=#000000;" parent="1" source="Gj97hD-j8zqPcNH29J3H-118" target="Gj97hD-j8zqPcNH29J3H-140" edge="1">
                    <mxGeometry relative="1" as="geometry">
                        <mxPoint x="330" y="801.9999999999998" as="targetPoint"/>
                    </mxGeometry>
                </mxCell>
                <mxCell id="Gj97hD-j8zqPcNH29J3H-118" value="Rendering" style="ellipse;whiteSpace=wrap;html=1;aspect=fixed;fontSize=16;fillColor=#fff2cc;strokeColor=#d6b656;strokeWidth=3;fontFamily=Garamond;fontColor=#000000;" parent="1" vertex="1">
                    <mxGeometry x="280" y="622" width="100" height="100" as="geometry"/>
                </mxCell>
                <mxCell id="Gj97hD-j8zqPcNH29J3H-120" style="edgeStyle=orthogonalEdgeStyle;shape=connector;curved=0;rounded=1;orthogonalLoop=1;jettySize=auto;html=1;exitX=0.5;exitY=1;exitDx=0;exitDy=0;labelBackgroundColor=default;strokeColor=default;align=center;verticalAlign=middle;fontFamily=Garamond;fontSize=16;fontColor=#000000;endArrow=classic;startSize=8;endSize=8;" parent="1" source="Gj97hD-j8zqPcNH29J3H-98" target="Gj97hD-j8zqPcNH29J3H-98" edge="1">
                    <mxGeometry relative="1" as="geometry"/>
                </mxCell>
                <mxCell id="Gj97hD-j8zqPcNH29J3H-140" value="Image" style="rounded=0;whiteSpace=wrap;html=1;fontSize=16;fontFamily=Garamond;fillColor=#e1d5e7;strokeColor=#9673a6;strokeWidth=3;fontColor=#000000;" parent="1" vertex="1">
                    <mxGeometry x="285" y="758" width="90" height="40" as="geometry"/>
                </mxCell>
            </root>
        </mxGraphModel>
    </diagram>
</mxfile>